<svg width="965" height="139" viewBox="0 0 965 139" fill="none" xmlns="http://www.w3.org/2000/svg">
<g clip-path="url(#logo-taxscouts-clip0)">
<path d="M113.32 4.54999H0V29.77H42.79V135.85H70.71V29.77H113.32V4.54999Z" fill="black"></path>
<path d="M205 125C204.571 121.178 204.36 117.336 204.37 113.49V65.17C204.37 53.73 200.6 44.76 193.14 38.52C185.68 32.28 175.14 29.18 161.56 29.18C150.46 29.18 140.84 31.35 132.97 35.65C125.004 40.0427 118.657 46.8738 114.86 55.14L114.59 55.7L135.95 71.1L136.21 70.02C137.61 64.36 140.41 59.96 144.56 57.02C148.71 54.08 154.14 52.48 160.66 52.48C166.59 52.48 171.25 53.67 174.52 56.03C177.79 58.39 179.33 61.66 179.33 66.12V67.12L154.76 70.9C140.31 73.19 129.33 77.33 122.13 83.2C118.608 85.9629 115.78 89.5097 113.87 93.5582C111.961 97.6067 111.022 102.045 111.13 106.52C111.13 116.05 114.48 123.77 121.13 129.52C127.78 135.27 136.4 138 147 138C153.426 138.103 159.796 136.792 165.66 134.16C170.93 131.612 175.615 127.999 179.42 123.55C179.54 125.83 179.69 127.83 179.88 129.55C180.093 131.506 180.461 133.442 180.98 135.34L181.14 135.88H206.93L206.71 134.96C205.941 131.677 205.37 128.351 205 125V125ZM152 115.8C147.5 115.8 143.9 114.8 141.29 112.97C140.059 112.14 139.06 111.009 138.39 109.683C137.719 108.358 137.399 106.884 137.46 105.4C137.46 101.71 139.25 98.89 142.93 96.79C146.61 94.69 153.33 92.79 162.55 91.22L179.3 88.48V88.86C179.387 92.9542 178.582 97.0183 176.94 100.77C175.495 103.971 173.385 106.827 170.75 109.15C168.188 111.367 165.219 113.065 162.01 114.15C158.789 115.259 155.407 115.83 152 115.84V115.8Z" fill="black"></path>
<path d="M428.16 68.43C423.622 65.1233 418.665 62.4331 413.42 60.43C407.93 58.29 402.59 56.43 397.56 54.75L386.24 51C383.033 49.9494 379.916 48.6418 376.92 47.09C374.587 45.9049 372.466 44.344 370.64 42.47C369.197 41.0009 368.395 39.0194 368.41 36.96C368.41 33.5 370.18 30.73 373.81 28.51C377.44 26.29 382.34 25.12 388.16 25.12C394.491 25.0455 400.72 26.7204 406.16 29.96C408.76 31.5336 410.997 33.6418 412.721 36.1451C414.445 38.6483 415.617 41.4894 416.16 44.48L416.37 45.48L442.11 32.48L441.87 31.85C439.928 26.6007 436.976 21.7831 433.18 17.67C429.547 13.7805 425.301 10.5138 420.61 7.99998C415.76 5.44694 410.582 3.57592 405.22 2.43998C399.675 1.22477 394.016 0.604595 388.34 0.589976C381.684 0.531294 375.052 1.38935 368.63 3.13998C363.062 4.63244 357.806 7.10803 353.11 10.45C348.847 13.5452 345.381 17.6105 343 22.31C340.556 27.3092 339.329 32.8159 339.42 38.38C339.266 43.9636 340.605 49.4872 343.3 54.38C345.87 58.7775 349.298 62.6135 353.38 65.66C357.64 68.8241 362.292 71.4224 367.22 73.39C372.22 75.39 377.34 77.31 382.35 78.98C386.423 80.42 390.38 81.8 394.22 83.12C397.674 84.2811 401.034 85.7053 404.27 87.38C406.828 88.6699 409.131 90.4112 411.07 92.52C412.667 94.2965 413.531 96.6118 413.49 99C413.49 102.79 411.49 106.07 407.69 108.72C403.89 111.37 398.4 112.82 391.76 112.82C383.11 112.82 375.86 110.42 370.21 105.7C367.44 103.424 365.186 100.585 363.598 97.3715C362.01 94.1576 361.125 90.6426 361 87.06V86L334.29 98L333.77 98.22L333.86 98.79C334.689 104.569 336.82 110.084 340.09 114.92C343.425 119.83 347.676 124.05 352.61 127.35C358.01 130.904 363.941 133.578 370.18 135.27C377.092 137.147 384.228 138.066 391.39 138C398.512 138.069 405.607 137.119 412.46 135.18C418.386 133.556 423.957 130.843 428.89 127.18C433.328 123.785 436.936 119.425 439.44 114.43C441.995 109.174 443.283 103.393 443.2 97.55C443.2 90.87 441.78 85.08 438.97 80.35C436.196 75.6968 432.521 71.6443 428.16 68.43V68.43Z" fill="black"></path>
<path d="M507.31 52.43C513.31 52.43 518.38 54.13 522.31 57.43C526.24 60.73 528.87 65.66 530.16 71.94L530.33 72.83L554.66 62.83L554.42 62.16C551.121 52.4606 544.899 44.0207 536.61 38C528.43 32.12 518.39 29.14 506.77 29.14C499.532 29.0678 492.351 30.4272 485.64 33.14C479.412 35.6851 473.78 39.4955 469.1 44.33C464.427 49.2718 460.798 55.1046 458.43 61.48C455.826 68.519 454.531 75.9751 454.61 83.48C454.523 91.0768 455.817 98.6262 458.43 105.76C460.792 112.188 464.459 118.058 469.2 123C473.934 127.816 479.627 131.584 485.91 134.06C492.67 136.717 499.877 138.055 507.14 138C518.39 138 528.14 135.15 536.24 129.51C544.34 123.87 550.36 115.61 554.24 104.97L554.49 104.3L530.34 94.3L530.16 95.18C528.87 101.46 526.23 106.34 522.31 109.69C518.151 113.098 512.894 114.875 507.52 114.69C499.52 114.69 493.04 111.85 488.3 106.23C483.56 100.61 481.11 92.93 481.11 83.44C481.11 73.95 483.53 66.31 488.3 60.73C493.07 55.15 499.43 52.43 507.31 52.43Z" fill="black"></path>
<path d="M655.51 44.15C650.815 39.344 645.149 35.5941 638.89 33.15C632.073 30.4851 624.809 29.1543 617.49 29.23C610.197 29.1476 602.957 30.4787 596.17 33.15C589.947 35.6126 584.315 39.3609 579.64 44.15C574.959 49.118 571.339 54.9872 569 61.4C566.387 68.5338 565.093 76.0832 565.18 83.68C565.102 91.2207 566.396 98.7126 569 105.79C571.341 112.19 574.961 118.045 579.64 123C584.314 127.809 589.95 131.578 596.18 134.06C602.963 136.734 610.199 138.072 617.49 138C624.807 138.074 632.072 136.747 638.89 134.09C645.156 131.619 650.823 127.838 655.51 123C660.208 118.037 663.842 112.167 666.19 105.75C668.785 98.6846 670.076 91.2066 670 83.68C670.087 76.0832 668.793 68.5338 666.18 61.4C663.832 54.9847 660.202 49.1153 655.51 44.15V44.15ZM617.51 114.76C613.959 114.837 610.438 114.1 607.217 112.604C603.996 111.108 601.161 108.893 598.93 106.13C594.1 100.36 591.65 92.81 591.65 83.68C591.65 74.55 594.1 66.83 598.94 61.06C601.22 58.3558 604.063 56.1822 607.271 54.6911C610.478 53.2001 613.973 52.4275 617.51 52.4275C621.047 52.4275 624.542 53.2001 627.749 54.6911C630.957 56.1822 633.8 58.3558 636.08 61.06C640.91 66.83 643.37 74.44 643.37 83.68C643.37 92.92 640.91 100.36 636.08 106.13C633.847 108.894 631.01 111.109 627.788 112.605C624.565 114.101 621.042 114.838 617.49 114.76H617.51Z" fill="black"></path>
<path d="M756.58 77.22C756.58 88.16 754.14 97.22 749.34 104.22C744.54 111.22 737.78 114.61 729.1 114.61C722.88 114.61 718.02 112.69 714.64 108.92C711.26 105.15 709.53 99.66 709.53 92.69V31.34H683.58V100.22C683.557 105.286 684.455 110.315 686.23 115.06C687.935 119.559 690.569 123.648 693.96 127.06C697.432 130.496 701.547 133.215 706.07 135.06C711.101 137.077 716.481 138.076 721.9 138C728.911 138.064 735.838 136.464 742.11 133.33C747.621 130.551 752.536 126.723 756.58 122.06V135.84H782.52V31.34H756.58V77.22Z" fill="black"></path>
<path d="M858.61 110.33C857.362 111.669 855.882 112.77 854.24 113.58C852.544 114.472 850.656 114.938 848.74 114.94C847.681 115.025 846.618 114.835 845.655 114.388C844.691 113.942 843.859 113.253 843.24 112.39C842.02 110.62 841.4 107.85 841.4 104.18V53.51H860.46V31.34H841.4V0L815.74 19.81L815.45 20.04V31.34H799.81V53.51H815.45V105.62C815.45 115.48 818.05 123.42 823.18 129.22C828.31 135.02 835.67 138 845 138C848.893 138.038 852.766 137.447 856.47 136.25C859.571 135.335 862.414 133.704 864.77 131.49L865.07 131.19L859.6 109.28L858.61 110.33Z" fill="black"></path>
<path d="M960.52 91.51C958.757 88.117 956.337 85.1086 953.4 82.66C950.393 80.1936 947.019 78.213 943.4 76.79C939.729 75.3015 935.984 74.0032 932.18 72.9C928.61 71.83 924.99 70.9 921.44 70.1C918.296 69.4364 915.204 68.544 912.19 67.43C909.918 66.6284 907.77 65.5108 905.81 64.11C905.135 63.6563 904.581 63.0448 904.196 62.3286C903.811 61.6124 903.606 60.8131 903.6 60C903.6 57.52 904.98 55.59 907.8 54.1C911.003 52.4842 914.554 51.6806 918.14 51.76C923.81 51.76 928.49 53.19 932.06 56.01C933.718 57.2374 935.084 58.816 936.061 60.6329C937.038 62.4498 937.601 64.4601 937.71 66.52L937.77 67.61L962.2 56.61L962 56C959.54 48.31 954.36 41.94 946.57 37.07C938.78 32.2 929.43 29.77 918.67 29.77C906.45 29.77 896.47 32.66 889 38.38C881.53 44.1 877.66 51.9 877.66 61.57C877.524 65.3521 878.235 69.1168 879.74 72.5891C881.245 76.0614 883.507 79.1537 886.36 81.64C889.015 83.9572 891.976 85.8987 895.16 87.41C898.448 88.9884 901.847 90.3253 905.33 91.41C909.14 92.59 913.06 93.69 916.98 94.65C920.9 95.61 924.26 96.58 927.34 97.65C929.928 98.4536 932.375 99.6583 934.59 101.22C935.396 101.779 936.053 102.527 936.502 103.399C936.952 104.271 937.181 105.239 937.17 106.22C937.17 108.96 935.7 111.22 932.68 113.04C929.072 115.066 924.975 116.056 920.84 115.9C914.803 115.965 908.904 114.101 904 110.58C899.17 107.14 896.43 102.78 895.86 97.58L895.74 96.58L872.26 107.58L872.47 108.21C875.421 117.423 881.6 125.26 889.87 130.28C898.22 135.43 908.63 138.03 920.87 138.03C933.45 138.03 943.76 135.03 951.53 128.97C959.3 122.91 964.32 114.58 964.32 104.2C964.29 99.29 962.36 95 960.52 91.51Z" fill="black"></path>
<path d="M271.63 59.54L250.43 31.63L250.2 31.34H219.55L241.02 59.54H271.63Z" fill="black"></path>
<path d="M326.49 31.34H296.74L273.73 62.31L258.05 81.89L217.94 134.65L217.04 135.85H246.78L272.67 101.11L288.34 81.35L325.57 32.54L326.49 31.34Z" fill="black"></path>
<path d="M305.52 103.88H274.79L299.04 135.56L299.26 135.85H329.91L305.52 103.88Z" fill="black"></path>
</g>
<defs>
<clipPath id="logo-taxscouts-clip0">
<rect width="964.29" height="138.01" fill="white"></rect>
</clipPath>
</defs>
</svg>
