<?xml version="1.0" encoding="utf-8"?>
<!-- Generator: Adobe Illustrator 27.0.1, SVG Export Plug-In . SVG Version: 6.00 Build 0)  -->
<svg version="1.1" id="Layer_1" xmlns="http://www.w3.org/2000/svg" xmlns:xlink="http://www.w3.org/1999/xlink" x="0px" y="0px"
	 viewBox="0 0 14 14" style="enable-background:new 0 0 14 14;" xml:space="preserve">
<style type="text/css">
	.st0{fill-rule:evenodd;clip-rule:evenodd;fill:#FFFFFF;}
</style>
<path class="st0" d="M7,5.9l5.7-5.7C12.9,0.1,13.1,0,13.2,0C13.7,0,14,0.3,14,0.7c0,0.2-0.1,0.4-0.2,0.5L8.1,7l5.7,5.7
	c0.1,0.1,0.2,0.3,0.2,0.5c0,0.4-0.3,0.8-0.8,0.8c-0.2,0-0.4-0.1-0.5-0.2L7,8.1l-5.7,5.7C1.1,13.9,0.9,14,0.8,14
	C0.3,14,0,13.7,0,13.2c0-0.2,0.1-0.4,0.2-0.5L5.9,7L0.2,1.3C0.1,1.1,0,0.9,0,0.7C0,0.3,0.3,0,0.8,0c0.2,0,0.4,0.1,0.5,0.2L7,5.9z"/>
</svg>
